<svg width="24" height="24" viewBox="0 0 24 24" fill="none" xmlns="http://www.w3.org/2000/svg">
<g id="ic-invisible" clip-path="url(#clip0_0_658)">
<path id="Visibility Icon" d="M18.0938 18.7358L4.96875 5.62549C4.7124 5.37646 4.7124 4.93701 4.96875 4.68066C5.2251 4.41699 5.65723 4.41699 5.9209 4.68066L19.0386 17.791C19.2949 18.0547 19.2949 18.4722 19.0386 18.7358C18.7822 18.9995 18.3574 18.9995 18.0938 18.7358ZM18.7896 16.0112L15.5449 12.7593C15.6475 12.437 15.6987 12.0928 15.6987 11.7339C15.6987 9.70508 14.0288 8.07178 12 8.07178C11.6558 8.07178 11.3115 8.12305 10.9893 8.21094L8.55762 5.7793C9.60498 5.44238 10.7476 5.24463 11.9854 5.24463C18.2622 5.24463 22.1074 10.2471 22.1074 11.7266C22.1074 12.5542 20.9136 14.4805 18.7896 16.0112ZM11.9854 18.2231C5.82568 18.2231 1.88525 13.2134 1.88525 11.7266C1.88525 10.8989 3.1084 8.9873 5.25439 7.44922L8.46973 10.6572C8.35254 11.0015 8.30127 11.3604 8.30127 11.7339C8.30127 13.7114 9.97119 15.396 12 15.396C12.3662 15.396 12.7178 15.3447 13.0474 15.2349L15.4863 17.6738C14.4243 18.0181 13.2524 18.2231 11.9854 18.2231ZM14.4023 11.5874C14.4023 11.6021 14.4023 11.6094 14.4023 11.624L12.0659 9.2876C12.0806 9.2876 12.0879 9.2876 12.1099 9.2876C13.377 9.2876 14.4023 10.3203 14.4023 11.5874ZM9.53906 11.7998C9.53906 11.7778 9.53906 11.7705 9.54639 11.7485L11.8828 14.0923C11.8682 14.0923 11.8608 14.0923 11.8389 14.0923C10.5718 14.0923 9.53906 13.0596 9.53906 11.7998Z" fill="white"/>
</g>
<defs>
<clipPath id="clip0_0_658">
<rect width="24" height="24" fill="white"/>
</clipPath>
</defs>
</svg>
