<svg width="24" height="24" viewBox="0 0 24 24" fill="none" xmlns="http://www.w3.org/2000/svg">
<g id="ic-checkbox-selected" clip-path="url(#clip0_0_673)">
<rect id="Rectangle" x="1.5" y="1.5" width="21" height="21" rx="3.5" stroke="white" stroke-width="3"/>
<path id="Title" d="M10.6172 19.4453C10.1172 19.4453 9.74219 19.2656 9.40625 18.8672L5.375 13.9844C5.09375 13.6641 4.99219 13.375 4.99219 13.0469C4.99219 12.3125 5.53906 11.7734 6.29688 11.7734C6.73438 11.7734 7.04688 11.9297 7.33594 12.2734L10.5781 16.2969L16.9688 6.21875C17.2812 5.72656 17.6016 5.53906 18.1172 5.53906C18.8672 5.53906 19.4141 6.07031 19.4141 6.80469C19.4141 7.07812 19.3281 7.36719 19.125 7.67969L11.8438 18.8125C11.5625 19.2422 11.1484 19.4453 10.6172 19.4453Z" fill="white"/>
</g>
<defs>
<clipPath id="clip0_0_673">
<rect width="24" height="24" fill="white"/>
</clipPath>
</defs>
</svg>
